HIERARCHY
ROOT Hips
{
  OFFSET -102.467 93.6631 130.069
  CHANNELS 6 Xposition Yposition Zposition Zrotation Xrotation Yrotation
  JOINT LeftUpLeg
  {
    OFFSET 8.64259 1.95398 -2.38835
    CHANNELS 3 Zrotation Xrotation Yrotation
    JOINT LeftLeg
    {
      OFFSET 43.7702 0 0
      CHANNELS 3 Zrotation Xrotation Yrotation
      JOINT LeftFoot
      {
        OFFSET 40.6238 0 0
        CHANNELS 3 Zrotation Xrotation Yrotation
        JOINT LeftToeBase
        {
          OFFSET 12.7242 0 0
          CHANNELS 3 Zrotation Xrotation Yrotation
          End Site
          {
            OFFSET 0 0 0
          }
        }
      }
    }
  }
  JOINT RightUpLeg
  {
    OFFSET -8.2249 1.95398 -2.59336
    CHANNELS 3 Zrotation Xrotation Yrotation
    JOINT RightLeg
    {
      OFFSET 43.5653 0 0
      CHANNELS 3 Zrotation Xrotation Yrotation
      JOINT RightFoot
      {
        OFFSET 40.6238 0 0
        CHANNELS 3 Zrotation Xrotation Yrotation
        JOINT RightToeBase
        {
          OFFSET 12.7242 0 0
          CHANNELS 3 Zrotation Xrotation Yrotation
          End Site
          {
            OFFSET 0 0 0
          }
        }
      }
    }
  }
  JOINT Spine
  {
    OFFSET 0.165834 0.87714 6.61349
    CHANNELS 3 Zrotation Xrotation Yrotation
    JOINT Spine1
    {
      OFFSET 7.38963 1.71661e-005 0
      CHANNELS 3 Zrotation Xrotation Yrotation
      JOINT Spine2
      {
        OFFSET 11.9445 1.14441e-005 0
        CHANNELS 3 Zrotation Xrotation Yrotation
        JOINT Spine3
        {
          OFFSET 14.7254 4.19617e-005 0
          CHANNELS 3 Zrotation Xrotation Yrotation
          JOINT Spine4
          {
            OFFSET 10.9679 0 0
            CHANNELS 3 Zrotation Xrotation Yrotation
            JOINT RightShoulder
            {
              OFFSET 2.46616 -1.6653 3.69651
              CHANNELS 3 Zrotation Xrotation Yrotation
              JOINT RightArm
              {
                OFFSET 13.0012 0 0
                CHANNELS 3 Zrotation Xrotation Yrotation
                JOINT RightForeArm
                {
                  OFFSET 28.7848 1.52588e-005 0
                  CHANNELS 3 Zrotation Xrotation Yrotation
                  JOINT RightHand
                  {
                    OFFSET 26.5688 1.52588e-005 0
                    CHANNELS 3 Zrotation Xrotation Yrotation
                    End Site
                    {
                      OFFSET 0 0 0
                    }
                  }
                }
              }
            }
            JOINT LeftShoulder
            {
              OFFSET 2.38034 -1.29275 -3.7523
              CHANNELS 3 Zrotation Xrotation Yrotation
              JOINT LeftArm
              {
                OFFSET 16.3182 6.10351e-005 0
                CHANNELS 3 Zrotation Xrotation Yrotation
                JOINT LeftForeArm
                {
                  OFFSET 27.0901 0 0
                  CHANNELS 3 Zrotation Xrotation Yrotation
                  JOINT LeftHand
                  {
                    OFFSET 24.5451 1.52588e-005 0
                    CHANNELS 3 Zrotation Xrotation Yrotation
                    End Site
                    {
                      OFFSET 0 0 0
                    }
                  }
                }
              }
            }
            JOINT Neck
            {
              OFFSET 5.0226 -0.0266342 0
              CHANNELS 3 Zrotation Xrotation Yrotation
              JOINT Head
              {
                OFFSET 6.69363 2.86102e-005 0
                CHANNELS 3 Zrotation Xrotation Yrotation
                End Site
                {
                  OFFSET 0 0 0
                }
              }
            }
          }
        }
      }
    }
  }
}
MOTION
Frames:	14
Frame Time:	0.0416667
263.964 80.8027 -270.973 -101.897 -51.7836 -101.885 -105.234 0.481009 101.758 100.132 34.1465 -101.414 52.8022 -35.2148 -4.72531 -28.1783 -2.94153 21.3388 -173.131 58.6489 72.3348 -76.8787 -58.9017 6.10436 2.85894 25.4657 27.3687 -35.056 0.576196 34.1949 -0.884668 3.38729 -89.6441 20.1006 -1.53585 1.06367 8.42968 -1.48761 1.12878 -14.1085 -1.78407 0.551425 5.90418 -1.78407 0.551433 113.55 -12.2532 -50.0422 72.8261 -41.2467 36.7616 112.272 29.4776 -104.769 -34.5241 10.4255 -38.4963 -60.6482 -17.0607 137.426 101.251 25.6901 -164.564 -116.909 -49.1231 -20.3943 28.0387 -27.3818 -87.9337 -68.9752 14.8261 -6.54588 -11.5416 11.2276 45.215 
264.223 80.7339 -271.189 -101.964 -52.023 -101.895 -105.155 0.663223 101.48 101.002 34.0048 -102.17 52.9314 -35.5083 -4.29669 -28.3385 -2.95345 21.3344 -173.054 58.6141 72.1957 -77.5068 -58.5453 6.04093 3.44412 25.3264 27.3733 -34.7282 0.757239 33.835 -0.908335 3.3877 -89.648 20.1015 -1.5842 1.06492 8.43075 -1.53581 1.13332 -14.1084 -1.83092 0.539187 5.90424 -1.83092 0.53919 113.588 -12.3594 -50.0119 72.8322 -41.2851 37.1503 114.193 28.4868 -105.846 -33.9388 10.2099 -38.4177 -60.595 -17.2262 137.429 101.036 26.1379 -164.339 -116.51 -49.3881 -19.7561 28.2303 -27.5685 -87.9623 -68.7766 14.8259 -6.51724 -11.6892 11.1757 45.2235 
264.963 80.5395 -271.807 -102.184 -52.7367 -101.952 -104.966 1.16266 100.672 103.099 33.6277 -104.101 53.122 -36.1638 -3.36661 -28.7871 -2.97681 21.3009 -172.856 58.4635 71.8323 -79.3185 -57.4915 5.83967 5.17376 24.9498 27.3674 -33.8657 1.25307 32.8128 -0.979378 3.38874 -89.6582 20.1045 -1.72862 1.07478 8.43408 -1.67964 1.14982 -14.1082 -1.9717 0.505422 5.9044 -1.9717 0.505416 113.701 -12.6696 -49.9257 72.8489 -41.3814 38.2808 118.977 25.6265 -108.346 -32.446 9.56917 -37.9011 -60.442 -17.7027 137.436 100.397 27.3998 -163.669 -115.321 -50.0904 -17.9047 28.7921 -28.1048 -88.02 -68.198 14.8218 -6.43021 -12.1196 11.0257 45.2441 
266.121 80.2365 -272.771 -102.603 -53.948 -102.115 -104.781 1.88608 99.362 105.545 33.1379 -106.637 52.9957 -36.7948 -2.5724 -29.4538 -2.98246 21.1909 -172.631 58.0688 71.3946 -82.2178 -55.7282 5.4314 8.04485 24.4433 27.3252 -32.7537 1.96474 31.2467 -1.10133 3.39004 -89.6714 20.1073 -1.97401 1.1012 8.43729 -1.92365 1.18703 -14.109 -2.21368 0.456793 5.90369 -2.21368 0.456789 113.882 -13.1749 -49.7919 72.872 -41.4892 40.1087 124.764 21.2358 -110.895 -30.6808 8.60633 -36.4918 -60.2004 -18.4573 137.448 99.3193 29.3236 -162.542 -113.34 -51.0253 -14.9258 29.7168 -28.9537 -88.0394 -67.2627 14.8169 -6.27868 -12.8183 10.7876 45.2665 
267.624 79.8387 -274.019 -103.323 -55.7055 -102.495 -104.747 2.72819 97.5983 107.832 32.6623 -109.429 52.3136 -37.1674 -2.29555 -30.2468 -2.93666 20.9555 -172.547 57.2431 71.1841 -86.1125 -53.1501 4.69529 12.097 23.9893 27.2797 -31.7498 2.79392 29.2775 -1.28113 3.39415 -89.6827 20.1027 -2.33135 1.15567 8.43329 -2.27823 1.25717 -14.1179 -2.57084 0.401188 5.89478 -2.57085 0.401171 114.127 -13.8706 -49.6203 72.8875 -41.5427 42.5934 130.238 15.8242 -112.535 -29.3686 7.58196 -34.1827 -59.8812 -19.4557 137.464 97.7668 31.7332 -160.918 -110.596 -51.941 -10.9256 31.0089 -30.0732 -87.9307 -65.9908 14.8153 -6.05108 -13.7768 10.4726 45.2776 
269.399 79.3548 -275.487 -104.496 -58.0547 -103.243 -105.025 3.58479 95.445 109.921 32.2598 -112.382 51.0694 -37.235 -2.54677 -31.0591 -2.80893 20.5584 -172.876 55.7627 71.6447 -90.8645 -49.6145 3.4748 17.3855 23.9082 27.3827 -31.2166 3.68324 27.0303 -1.52593 3.4062 -89.6887 20.0849 -2.81319 1.24761 8.41625 -2.75555 1.37028 -14.1427 -3.05797 0.343757 5.86996 -3.05798 0.343763 114.435 -14.7554 -49.4219 72.862 -41.4625 45.6809 135.056 9.81592 -112.921 -29.078 6.76582 -31.4397 -59.4952 -20.6647 137.484 95.6811 34.4405 -158.736 -108.695 -56.6957 -6.69091 32.6761 -31.4119 -87.5951 -64.4014 14.8228 -5.73248 -14.9894 10.093 45.2628 
271.379 78.7877 -277.115 -106.309 -60.9996 -104.503 -105.789 4.41192 92.9755 112.045 31.8831 -115.507 49.4025 -37.0656 -3.1027 -31.76 -2.57248 19.9748 -173.972 53.4374 73.5683 -96.2794 -44.0177 1.56215 23.7435 24.1445 28.3291 -31.5162 4.64129 24.5654 -1.83973 3.42771 -89.6924 20.0511 -3.42865 1.3723 8.38384 -3.36495 1.522 -14.1871 -3.68238 0.277124 5.82553 -3.68238 0.277112 114.8 -15.8296 -49.209 72.7295 -41.1627 49.2842 139.543 3.45097 -111.99 -30.2074 6.33747 -28.8712 -59.0522 -22.0513 137.509 92.9918 37.2446 -155.924 -87.0275 35.966 -0.931098 34.7242 -32.9034 -86.9318 -62.5149 14.8471 -5.30538 -16.4508 9.66333 45.2072 
273.51 78.1336 -278.852 -108.829 -64.4524 -106.216 -107.217 5.31047 90.3082 114.549 31.3365 -118.753 47.4855 -36.8085 -3.63224 -32.1682 -2.20207 19.183 -176.164 50.1312 77.7796 -101.589 -35.5953 -0.89316 30.5366 25.5404 31.0368 -33.037 5.78652 21.7896 -2.21626 3.45331 -89.7133 20.0125 -4.17637 1.48938 8.34727 -4.10678 1.67199 -14.2416 -4.43057 0.163015 5.7711 -4.43056 0.163013 115.219 -17.0939 -48.9955 72.3827 -40.5655 53.2676 144.441 -3.13265 -109.674 -33.057 6.42817 -27.0405 -58.561 -23.5825 137.542 89.6399 39.9294 -152.418 108.972 58.665 -179.921 37.1486 -34.4623 -85.8496 -60.3557 14.8983 -4.7507 -18.1537 9.20076 45.0958 
275.771 77.3918 -280.684 -111.942 -68.2176 -108.13 -109.394 6.48394 87.4434 117.853 30.363 -122.075 45.4548 -36.6174 -3.84251 -32.0118 -1.67657 18.1607 -179.474 45.7897 84.6443 -105.692 -24.1061 -3.56628 35.8631 29.8819 36.5186 -36.2011 7.46905 18.2622 -2.63504 3.47327 -89.7792 19.9878 -5.03084 1.53793 8.32542 -4.95829 1.75833 -14.2881 -5.25986 -0.0492402 5.72453 -5.25988 -0.0492368 115.685 -18.5483 -48.7957 71.6788 -39.6184 57.4465 150.835 -9.67703 -105.703 -37.8249 7.24952 -26.4859 -58.029 -25.2275 137.587 85.6073 42.2714 -148.188 109.709 72.088 -179.739 39.9257 -35.9894 -84.2835 -57.9531 14.9886 -4.0504 -20.0861 8.72467 44.9157 
278.183 76.5897 -282.646 -115.663 -72.0451 -110.28 -112.176 7.94057 84.3324 90.1954 42.054 -106.521 27.8349 -5.43691 -6.8331 -30.9086 -0.997465 16.9012 176.973 40.3246 92.491 -107.263 -7.93846 -5.52401 34.659 36.2595 47.3971 -41.2604 10.5906 12.7704 -3.06753 3.48594 -89.8965 19.9781 -5.93969 1.49384 8.31964 -5.86817 1.75462 -14.3251 -6.11304 -0.367047 5.68759 -6.11304 -0.367054 116.192 -20.1909 -48.6238 70.4642 -38.3103 61.6096 160.07 -15.493 -99.5468 -44.373 9.21419 -27.8375 -57.4609 -26.9598 137.65 80.9579 44.0492 -143.275 111.652 78.1622 -179.609 43.0083 -37.3811 -82.207 -55.3406 15.1306 -3.19026 -22.2305 8.25515 44.6577 
280.815 75.8022 -284.828 -120.3 -75.6904 -113.118 -115.236 9.46538 80.7857 -36.9282 -14.2936 -44.8596 109.1 39.8946 -147.833 -28.4475 -0.239585 15.4843 174.568 33.9966 97.9545 -106.123 15.0737 -5.39157 19.6525 38.4389 66.7554 -46.5257 17.1163 2.40737 -3.48665 3.49627 -90.0534 19.9717 -6.84374 1.36789 8.3178 -6.77689 1.66909 -14.3624 -6.93691 -0.762312 5.65026 -6.93691 -0.762313 116.733 -22.016 -48.4935 68.603 -36.6781 65.5476 173.221 -19.0855 -90.8389 -51.5892 12.8829 -31.7854 -56.8593 -28.7569 137.738 75.8892 45.0506 -137.832 113.775 81.3833 -179.469 46.3158 -38.5371 -79.6425 -52.5568 15.3373 -2.16148 -24.5624 7.81192 44.3165 
283.826 75.2286 -287.396 -126.417 -78.9591 -117.347 -118.327 10.6763 76.2089 109.425 43.4095 -120.367 25.0749 -4.3868 -5.84327 -24.6656 0.419 14.1539 173.244 27.2272 100.052 -105.679 44.8612 -2.25988 -1.18479 26.9573 83.1195 -44.7434 26.123 -14.8465 -3.87221 3.5081 -90.2362 19.9591 -7.69623 1.17696 8.31039 -7.63694 1.51648 -14.407 -7.69197 -1.20466 5.6057 -7.69198 -1.20465 117.295 -24.0122 -48.4168 66.0083 -34.8037 69.0832 -170.586 -18.4471 -80.7146 -56.9427 18.2753 -38.573 -56.225 -30.6001 137.856 70.7681 45.0902 -132.148 115.931 82.1013 -179.426 49.7291 -39.3724 -76.6668 -49.6461 15.6195 -0.963182 -27.0493 7.41323 43.8921 
287.753 74.3912 -290.962 -134.914 -81.724 -123.967 -121.629 11.2597 69.0418 146.277 26.6566 -145.688 40.3682 -32.2975 -2.48503 -20.6943 0.878154 13.0689 171.861 21.6842 100.567 -117.29 70.1877 10.5021 -11.0234 9.84506 86.1016 -36.6835 30.3624 -30.36 -4.21297 3.52272 -90.4348 19.9387 -8.46982 0.935557 8.29369 -8.42037 1.31005 -14.46 -8.35654 -1.67172 5.5526 -8.35653 -1.67173 117.868 -26.1604 -48.4044 62.6669 -32.7921 72.1024 -154.738 -13.0914 -72.0986 -58.1809 23.9862 -47.4161 -55.5578 -32.4748 138.011 66.1104 44.037 -126.602 117.937 80.5798 -179.524 53.1026 -39.8308 -73.4005 -46.656 15.9843 0.395778 -29.6522 7.07232 43.3911 
293.5 72.2602 -296.514 -147.23 -83.8971 -134.482 -127.159 10.793 56.7405 162.962 33.2837 -163.842 44.6602 -28.7802 -1.60977 -17.9174 1.27072 11.965 170.117 19.687 100.544 -165.519 80.7079 55.0993 -12.4751 -2.58111 85.9373 -32.4224 30.9758 -36.6832 -4.5051 3.54007 -90.6416 19.9077 -9.1529 0.656236 8.2669 -9.11508 1.06182 -14.5205 -8.92343 -2.14772 5.49215 -8.92341 -2.14772 118.436 -28.4351 -48.4662 58.6405 -30.7463 74.5639 -141.829 -4.93212 -66.9322 -55.6051 28.2651 -56.7827 -54.857 -34.3701 138.205 62.4921 41.8377 -121.554 119.483 76.8711 -179.661 56.287 -39.8895 -69.984 -43.6337 16.4328 1.897 -32.3295 6.79496 42.8276 
